<svg width="684" height="192" viewBox="0 0 684 192" fill="none" xmlns="http://www.w3.org/2000/svg">
<g filter="url(#filter0_di_32_39)">
<path d="M35.77 60.67C46.5167 56.4233 57.1767 46.8467 67.75 31.94L70.61 27.78L73.47 23.75C75.7233 20.63 77.63 18.0733 79.19 16.08C83.4367 10.7933 87.5533 7.19666 91.54 5.29C94.8333 3.64333 97.52 3.86 99.6 5.94C101.68 7.93333 101.723 10.23 99.73 12.83C98.3433 11.9633 96.8267 12.2667 95.18 13.74C93.88 14.78 92.06 17.0767 89.72 20.63C89.3733 21.15 88.81 21.9733 88.03 23.1L86.21 25.83C84.7367 28.0833 83.35 30.12 82.05 31.94C78.4967 36.88 74.8133 41.3867 71 45.46C61.5533 55.5133 50.59 61.7533 38.11 64.18V64.44C48.77 67.04 57.3933 72.76 63.98 81.6C66.2333 84.6333 68.4 88.62 70.48 93.56C71.26 95.38 72.0833 97.5467 72.95 100.06L74.12 103.18L75.29 106.17C78.7567 115.617 82.1367 120.34 85.43 120.34C88.3767 120.34 90.4567 119.343 91.67 117.35C92.8833 115.443 92.84 113.58 91.54 111.76C93.1 110.027 94.6167 109.68 96.09 110.72C97.4767 111.76 98.17 113.147 98.17 114.88C98.17 117.48 96.74 119.863 93.88 122.03C91.28 123.937 88.68 124.89 86.08 124.89C79.9267 124.89 74.12 121.813 68.66 115.66C64.3267 110.807 60.3833 104.133 56.83 95.64C51.2833 82.5533 44.1333 73.4967 35.38 68.47C34.2533 73.2367 33.95 79.52 34.47 87.32C34.99 95.2933 36.16 101.49 37.98 105.91C37.2867 107.643 35.5967 108.64 32.91 108.9C29.9633 109.16 27.8833 107.817 26.67 104.87C25.2833 101.317 24.1133 95.4667 23.16 87.32C22.2933 79.78 21.9467 73.8 22.12 69.38C22.4667 61.84 23.4633 54.6467 25.11 47.8C26.3233 42.7733 27.97 37.53 30.05 32.07C34.5567 20.4567 36.81 13.74 36.81 11.92C36.81 9.58 36.2033 7.67333 34.99 6.19999C33.8633 4.72666 32.52 3.99 30.96 3.99C28.2733 3.99 25.5433 6.02666 22.77 10.1C20.2567 13.6533 18.09 18.3333 16.27 24.14C12.0233 37.3133 11.4167 46.37 14.45 51.31C10.9833 53.5633 7.82 53.0867 4.96 49.88C2.18667 46.8467 1.01667 42.6867 1.45 37.4C2.14333 28.4733 5.09 20.3267 10.29 12.96C15.75 5.16 21.9467 1.26 28.88 1.26C39.1067 1.26 44.22 6.24333 44.22 16.21C44.22 18.9833 43.31 24.8767 41.49 33.89C41.1433 35.6233 40.71 37.66 40.19 40L39.41 43.25L38.76 46.63C37.46 52.6967 36.4633 57.3767 35.77 60.67ZM177.501 63.79C178.281 61.97 179.408 61.3633 180.881 61.97C182.355 62.6633 182.831 63.79 182.311 65.35C176.071 85.8033 165.498 101.577 150.591 112.67C149.725 129.83 144.525 145.647 134.991 160.12C124.678 175.807 112.848 183.65 99.5015 183.65C91.8748 183.65 86.3715 181.527 82.9915 177.28C80.0448 173.553 78.8748 168.743 79.4815 162.85C80.4348 154.183 85.2882 146.123 94.0415 138.67C102.448 131.65 117.658 122.55 139.671 111.37C139.671 106.17 139.498 100.71 139.151 94.99C138.891 90.7433 138.545 86.7133 138.111 82.9C135.338 88.36 132.088 93.2133 128.361 97.46C123.335 103.007 118.655 105.78 114.321 105.78C108.688 105.78 104.701 102.92 102.361 97.2C100.455 92.78 99.8048 87.45 100.411 81.21C100.498 80.43 100.628 79.52 100.801 78.48L101.321 75.49C101.841 72.63 102.188 70.4633 102.361 68.99C102.881 63.79 101.885 60.15 99.3715 58.07C101.105 55.3833 103.661 54.04 107.041 54.04C110.075 54.04 112.545 55.2533 114.451 57.68C116.531 60.3667 117.138 63.9633 116.271 68.47L115.881 70.81L115.361 73.28L114.451 78.48C113.758 82.5533 113.325 86.02 113.151 88.88C112.545 96.5933 113.585 100.45 116.271 100.45C118.525 100.45 121.168 98.76 124.201 95.38C126.975 92.1733 129.531 88.1433 131.871 83.29C137.331 71.6767 138.328 63.53 134.861 58.85C135.035 56.77 135.988 55.21 137.721 54.17C139.628 53.13 141.751 53.26 144.091 54.56C146.951 56.12 148.858 62.1867 149.811 72.76C150.505 79.6933 150.851 90.2667 150.851 104.48C154.925 101.793 159.648 96.3767 165.021 88.23C170.655 79.7367 174.815 71.59 177.501 63.79ZM96.5115 179.49C101.365 179.837 106.391 178.32 111.591 174.94C116.531 171.733 121.125 167.14 125.371 161.16C134.731 148.073 139.411 133.86 139.411 118.52L134.861 120.73L130.181 122.94C126.715 124.673 123.595 126.277 120.821 127.75C113.801 131.477 107.908 134.987 103.141 138.28C90.7482 146.86 84.2482 155.44 83.6415 164.02C83.2948 168.267 84.3348 171.82 86.7615 174.68C89.1882 177.54 92.4382 179.143 96.5115 179.49ZM238.591 64.18C240.238 63.2267 241.408 63.1833 242.101 64.05C242.708 64.83 242.795 66.26 242.361 68.34C240.281 79.1733 236.728 88.5767 231.701 96.55C226.155 105.303 220.348 109.42 214.281 108.9C209.168 108.467 205.658 104.047 203.751 95.64C201.931 87.84 201.715 78.35 203.101 67.17C200.068 68.0367 196.081 74.3633 191.141 86.15C186.375 97.5033 183.991 105.65 183.991 110.59C179.658 111.023 176.581 108.163 174.761 102.01C173.375 97.4167 172.681 90.8733 172.681 82.38V75.62C172.681 72.8467 172.638 70.5067 172.551 68.6C172.118 63.4 171.121 60.41 169.561 59.63C169.995 58.2433 170.818 57.2033 172.031 56.51C173.505 55.6433 175.108 55.3833 176.841 55.73C179.961 56.3367 182.388 59.4133 184.121 64.96C185.335 69.0333 186.201 74.4933 186.721 81.34C186.808 81.2533 187.068 80.82 187.501 80.04L188.021 79.13L188.541 78.09C189.755 76.0967 190.925 74.2767 192.051 72.63C195.518 67.3433 198.941 63.27 202.321 60.41C206.308 57.03 210.468 55.99 214.801 57.29C217.228 57.9833 218.788 59.63 219.481 62.23C220.175 64.9167 219.828 68.21 218.441 72.11C217.488 74.7967 216.578 77.7433 215.711 80.95C214.585 84.9367 213.761 88.49 213.241 91.61C211.768 100.19 212.505 104.653 215.451 105C219.958 105.52 225.158 100.017 231.051 88.49C236.685 77.4833 239.198 69.38 238.591 64.18ZM301.064 63.92C302.798 62.88 304.011 62.8367 304.704 63.79C305.398 64.6567 305.398 66.0867 304.704 68.08C299.591 82.8133 295.821 92.3033 293.394 96.55C289.234 103.657 283.948 107.21 277.534 107.21C272.768 107.21 269.171 104.653 266.744 99.54C264.924 95.7267 263.798 90.7 263.364 84.46C263.278 84.6333 263.148 84.8933 262.974 85.24L262.714 85.76L262.454 86.28C262.021 87.4067 261.588 88.4033 261.154 89.27C259.768 92.13 258.338 94.6 256.864 96.68C252.531 103.267 248.198 106.56 243.864 106.56C239.618 106.56 236.411 104.567 234.244 100.58C232.078 96.7667 231.211 91.7833 231.644 85.63C231.731 84.2433 232.121 81.9467 232.814 78.74L233.854 74.58L234.764 70.29C236.151 63.27 236.021 58.85 234.374 57.03C235.068 55.8167 236.541 54.8633 238.794 54.17C239.574 53.91 240.441 53.6933 241.394 53.52C242.174 53.4333 242.868 53.39 243.474 53.39C245.294 53.39 246.811 54.04 248.024 55.34C249.238 56.64 249.844 58.1567 249.844 59.89C249.844 61.97 248.674 67.6467 246.334 76.92C243.908 86.1933 242.694 92.7367 242.694 96.55C242.694 100.623 243.734 102.66 245.814 102.66C247.548 102.66 249.628 100.753 252.054 96.94C254.308 93.4733 256.431 89.14 258.424 83.94C263.191 71.46 264.231 63.8767 261.544 61.19C262.844 58.1567 265.184 56.64 268.564 56.64C274.111 56.64 276.884 60.54 276.884 68.34C276.884 69.2933 276.494 71.9367 275.714 76.27L275.194 79.13L274.674 82.12C274.241 84.3733 273.938 86.3667 273.764 88.1C272.638 98.4133 274.284 103.483 278.704 103.31C283.124 103.137 287.068 99.67 290.534 92.91C293.134 87.97 296.644 78.3067 301.064 63.92ZM346.683 30.77L346.423 31.55C345.903 32.85 345.513 33.8033 345.253 34.41C343.78 38.05 342.35 41.17 340.963 43.77C336.457 52.1767 331.993 56.38 327.573 56.38C323.76 56.38 320.9 54.3433 318.993 50.27C317.433 46.7167 316.87 42.47 317.303 37.53C318.603 23.23 319.21 14.52 319.123 11.4C318.95 6.37333 317.477 3.85999 314.703 3.85999C308.03 3.85999 302.223 7.71666 297.283 15.43C292.863 22.2767 290.653 29.34 290.653 36.62C290.653 40.0867 291.303 43.0333 292.603 45.46C294.077 48.32 296.113 49.75 298.713 49.75C300.533 49.75 302.353 48.6233 304.173 46.37C305.82 44.29 306.86 41.9933 307.293 39.48C307.38 38.8733 307.423 38.2667 307.423 37.66C307.423 36.7933 307.293 36.0133 307.033 35.32C306.513 33.24 305.387 31.7667 303.653 30.9C304.867 28.82 306.903 28.0833 309.763 28.69C311.93 29.1233 313.403 30.64 314.183 33.24C314.877 35.4933 314.877 37.8333 314.183 40.26C313.923 41.2133 313.49 42.2967 312.883 43.51C312.103 44.9833 311.15 46.2833 310.023 47.41C306.99 50.7033 303.393 52.35 299.233 52.35C295.16 52.35 291.997 50.66 289.743 47.28C287.837 44.3333 286.883 40.65 286.883 36.23C286.883 27.91 289.267 20.1967 294.033 13.09C299.407 5.03 306.167 0.999998 314.313 0.999998C320.293 0.999998 324.713 3.34 327.573 8.01999C328.267 9.57999 328.787 11.4 329.133 13.48C329.22 14.1733 329.307 14.91 329.393 15.69V17.25C329.393 21.3233 329.177 25.9167 328.743 31.03C328.657 32.59 328.527 34.6267 328.353 37.14L328.093 40C328.007 41.04 327.92 41.8633 327.833 42.47C326.62 49.75 327.573 52.61 330.693 51.05C332.34 51.05 334.68 48.2333 337.713 42.6C341.007 36.7067 343.997 29.99 346.683 22.45C347.29 20.4567 348.72 15.9933 350.973 9.06L351.233 7.88999L351.493 6.71999C351.667 5.76666 351.797 5.07333 351.883 4.64C352.057 4.29333 352.143 3.94666 352.143 3.6C352.317 3.25333 352.577 2.94999 352.923 2.68999C353.617 1.99666 354.657 1.65 356.043 1.65C360.29 0.696661 362.457 2.08333 362.543 5.81C363.15 15.0833 362.413 24.0533 360.333 32.72C359.727 37.14 358.6 43.2933 356.953 51.18C355.307 56.8133 354.18 61.5367 353.573 65.35C351.84 74.8833 351.883 82.4667 353.703 88.1C356.303 93.82 360.55 97.4167 366.443 98.89C371.643 99.15 376.15 97.07 379.963 92.65C383.43 87.6233 385.163 82.4667 385.163 77.18C385.163 75.1 384.643 73.67 383.603 72.89C383.863 72.1967 384.513 71.85 385.553 71.85C387.027 71.85 388.24 72.37 389.193 73.41C390.493 74.8833 391.143 76.79 391.143 79.13C391.143 84.1567 389.453 89.5733 386.073 95.38C382 101.62 376.323 104.74 369.043 104.74C355.35 104.567 346.727 99.67 343.173 90.05C339.707 81.9033 339.013 71.4167 341.093 58.59C341.613 55.8167 342.263 51.8733 343.043 46.76L346.683 30.77ZM465.215 63.92C466.948 62.88 468.162 62.8367 468.855 63.79C469.548 64.6567 469.548 66.0867 468.855 68.08C463.742 82.8133 459.972 92.3033 457.545 96.55C453.385 103.657 448.098 107.21 441.685 107.21C436.918 107.21 433.322 104.653 430.895 99.54C429.075 95.7267 427.948 90.7 427.515 84.46C427.428 84.6333 427.298 84.8933 427.125 85.24L426.865 85.76L426.605 86.28C426.172 87.4067 425.738 88.4033 425.305 89.27C423.918 92.13 422.488 94.6 421.015 96.68C416.682 103.267 412.348 106.56 408.015 106.56C403.768 106.56 400.562 104.567 398.395 100.58C396.228 96.7667 395.362 91.7833 395.795 85.63C395.882 84.2433 396.272 81.9467 396.965 78.74L398.005 74.58L398.915 70.29C400.302 63.27 400.172 58.85 398.525 57.03C399.218 55.8167 400.692 54.8633 402.945 54.17C403.725 53.91 404.592 53.6933 405.545 53.52C406.325 53.4333 407.018 53.39 407.625 53.39C409.445 53.39 410.962 54.04 412.175 55.34C413.388 56.64 413.995 58.1567 413.995 59.89C413.995 61.97 412.825 67.6467 410.485 76.92C408.058 86.1933 406.845 92.7367 406.845 96.55C406.845 100.623 407.885 102.66 409.965 102.66C411.698 102.66 413.778 100.753 416.205 96.94C418.458 93.4733 420.582 89.14 422.575 83.94C427.342 71.46 428.382 63.8767 425.695 61.19C426.995 58.1567 429.335 56.64 432.715 56.64C438.262 56.64 441.035 60.54 441.035 68.34C441.035 69.2933 440.645 71.9367 439.865 76.27L439.345 79.13L438.825 82.12C438.392 84.3733 438.088 86.3667 437.915 88.1C436.788 98.4133 438.435 103.483 442.855 103.31C447.275 103.137 451.218 99.67 454.685 92.91C457.285 87.97 460.795 78.3067 465.215 63.92ZM548.664 64.18C550.397 63.14 551.61 63.0967 552.304 64.05C552.997 64.9167 553.04 66.3467 552.434 68.34C547.84 83.3333 543.637 93.6033 539.824 99.15C536.01 104.697 531.244 107.427 525.524 107.34C520.41 107.34 516.034 105.217 512.394 100.97C508.494 96.6367 506.544 91.3067 506.544 84.98C506.544 80.82 506.977 76.8767 507.844 73.15C506.11 73.5833 503.727 76.14 500.694 80.82C497.834 85.3267 496.144 88.8367 495.624 91.35C495.19 91.9567 494.454 92.26 493.414 92.26C491.16 92.26 489.514 90.4833 488.474 86.93C487.694 84.2433 487.304 80.69 487.304 76.27C487.304 74.0167 487.65 69.25 488.344 61.97C487.91 62.49 487 64.18 485.614 67.04C484.14 70.16 482.71 73.4967 481.324 77.05C477.424 86.8433 475.474 94.08 475.474 98.76C475.474 100.493 475.777 101.793 476.384 102.66C475.69 105.78 473.394 107.34 469.494 107.34C464.38 107.34 460.87 99.6267 458.964 84.2C458.877 83.16 458.79 81.5567 458.704 79.39V76.66L458.574 73.8C458.314 69.12 457.36 65.4367 455.714 62.75C456.06 61.45 456.927 60.15 458.314 58.85C459.787 57.55 461.174 56.9 462.474 56.9C466.98 56.9 469.97 59.24 471.444 63.92C471.964 65.74 472.527 68.6 473.134 72.5L473.524 75.1L473.914 77.96C474.174 80.3 474.477 82.38 474.824 84.2C475.17 83.2467 475.647 81.86 476.254 80.04L477.034 77.57L477.944 74.97C479.59 70.2033 481.02 66.3467 482.234 63.4C486.047 54.1267 489.817 49.49 493.544 49.49C495.017 49.49 496.62 49.9233 498.354 50.79C500.26 51.6567 501.214 54.56 501.214 59.5C501.214 61.6667 500.997 64.7433 500.564 68.73L500.304 70.94L500.044 72.89C499.87 74.3633 499.784 75.5333 499.784 76.4C499.957 76.14 500.304 75.6633 500.824 74.97L501.474 74.06L502.254 73.15C503.38 71.6767 504.42 70.42 505.374 69.38C508.32 66.3467 511.094 64.83 513.694 64.83C520.194 64.83 523.227 68.0367 522.794 74.45L522.404 79.78L522.014 84.85C521.754 88.75 521.667 91.7833 521.754 93.95C522.1 99.93 524.05 102.92 527.604 102.92C531.677 102.92 535.707 98.76 539.694 90.44C542.64 84.2 545.63 75.4467 548.664 64.18ZM609.548 63.92C611.282 62.88 612.495 62.8367 613.188 63.79C613.882 64.6567 613.925 66.0867 613.318 68.08C608.985 82.0333 605.172 91.6967 601.878 97.07C597.718 103.83 592.692 107.21 586.798 107.21C582.378 107.21 578.305 104.307 574.578 98.5C571.198 93.2133 569.638 88.4033 569.898 84.07C569.292 85.5433 568.382 87.32 567.168 89.4C565.608 92.1733 564.005 94.6867 562.358 96.94C557.765 103.18 553.692 106.3 550.138 106.3C546.932 106.3 544.375 104.263 542.468 100.19C540.735 96.6367 539.868 92.39 539.868 87.45C539.868 79.39 542.165 71.8933 546.758 64.96C551.785 57.5067 558.068 53.39 565.608 52.61C570.462 52.09 574.405 52.7833 577.438 54.69C580.038 56.3367 581.338 58.3733 581.338 60.8C581.338 63.14 580.688 65.0033 579.388 66.39C578.175 67.69 576.658 68.2533 574.838 68.08C575.618 66 575.705 64.2667 575.098 62.88C574.492 61.4933 573.495 60.8867 572.108 61.06C567.168 61.58 562.012 66.7367 556.638 76.53C551.525 85.8033 548.968 93.56 548.968 99.8C548.968 101.533 549.445 102.4 550.398 102.4C552.218 102.4 554.775 100.407 558.068 96.42C562.055 91.74 565.348 85.9767 567.948 79.13C568.815 76.79 568.815 74.84 567.948 73.28C568.208 72.8467 568.858 72.37 569.898 71.85C571.198 71.33 572.585 71.07 574.058 71.07C576.745 71.07 578.522 71.6333 579.388 72.76C580.168 73.7133 580.645 75.8367 580.818 79.13L580.948 80.3V81.73C581.035 83.1167 581.122 84.2867 581.208 85.24C581.468 88.2733 581.772 90.8733 582.118 93.04C583.245 99.4533 585.065 102.66 587.578 102.66C592.778 102.66 597.285 98.5433 601.098 90.31C602.572 87.1033 604.088 82.9867 605.648 77.96C606.255 75.9667 606.905 73.6267 607.598 70.94L609.548 63.92ZM626.939 45.2L627.979 44.42L630.059 42.73C631.879 41.2567 633.179 40.26 633.959 39.74C635.346 38.8733 636.386 38.9167 637.079 39.87C637.686 40.91 637.339 41.95 636.039 42.99C635.779 43.25 635.389 43.5967 634.869 44.03L633.569 45.07C632.442 46.11 631.489 46.9333 630.709 47.54C628.369 49.4467 626.939 50.4 626.419 50.4C625.812 50.4 624.339 49.4033 621.999 47.41L620.569 46.24L619.399 45.2C618.359 44.3333 617.752 43.8133 617.579 43.64C616.019 42.1667 615.629 40.8667 616.409 39.74C617.102 38.6133 618.099 38.6133 619.399 39.74L621.219 41.3L623.039 42.99C624.512 44.29 625.552 45.2433 626.159 45.85L626.939 45.2ZM670.879 63.92C672.612 62.88 673.826 62.8367 674.519 63.79C675.212 64.6567 675.212 66.0867 674.519 68.08C669.406 82.8133 665.636 92.3033 663.209 96.55C659.049 103.657 653.762 107.21 647.349 107.21C642.582 107.21 638.986 104.653 636.559 99.54C634.739 95.7267 633.612 90.7 633.179 84.46C633.092 84.6333 632.962 84.8933 632.789 85.24L632.529 85.76L632.269 86.28C631.836 87.4067 631.402 88.4033 630.969 89.27C629.582 92.13 628.152 94.6 626.679 96.68C622.346 103.267 618.012 106.56 613.679 106.56C609.432 106.56 606.226 104.567 604.059 100.58C601.892 96.7667 601.026 91.7833 601.459 85.63C601.546 84.2433 601.936 81.9467 602.629 78.74L603.669 74.58L604.579 70.29C605.966 63.27 605.836 58.85 604.189 57.03C604.882 55.8167 606.356 54.8633 608.609 54.17C609.389 53.91 610.256 53.6933 611.209 53.52C611.989 53.4333 612.682 53.39 613.289 53.39C615.109 53.39 616.626 54.04 617.839 55.34C619.052 56.64 619.659 58.1567 619.659 59.89C619.659 61.97 618.489 67.6467 616.149 76.92C613.722 86.1933 612.509 92.7367 612.509 96.55C612.509 100.623 613.549 102.66 615.629 102.66C617.362 102.66 619.442 100.753 621.869 96.94C624.122 93.4733 626.246 89.14 628.239 83.94C633.006 71.46 634.046 63.8767 631.359 61.19C632.659 58.1567 634.999 56.64 638.379 56.64C643.926 56.64 646.699 60.54 646.699 68.34C646.699 69.2933 646.309 71.9367 645.529 76.27L645.009 79.13L644.489 82.12C644.056 84.3733 643.752 86.3667 643.579 88.1C642.452 98.4133 644.099 103.483 648.519 103.31C652.939 103.137 656.882 99.67 660.349 92.91C662.949 87.97 666.459 78.3067 670.879 63.92Z" fill="#705540"/>
</g>
<defs>
<filter id="filter0_di_32_39" x="0.799999" y="0.219986" width="682.759" height="191.43" filterUnits="userSpaceOnUse" color-interpolation-filters="sRGB">
<feFlood flood-opacity="0" result="BackgroundImageFix"/>
<feColorMatrix in="SourceAlpha" type="matrix" values="0 0 0 0 0 0 0 0 0 0 0 0 0 0 0 0 0 0 127 0" result="hardAlpha"/>
<feOffset dx="4" dy="4"/>
<feGaussianBlur stdDeviation="2"/>
<feComposite in2="hardAlpha" operator="out"/>
<feColorMatrix type="matrix" values="0 0 0 0 0 0 0 0 0 0 0 0 0 0 0 0 0 0 0.3 0"/>
<feBlend mode="normal" in2="BackgroundImageFix" result="effect1_dropShadow_32_39"/>
<feBlend mode="normal" in="SourceGraphic" in2="effect1_dropShadow_32_39" result="shape"/>
<feColorMatrix in="SourceAlpha" type="matrix" values="0 0 0 0 0 0 0 0 0 0 0 0 0 0 0 0 0 0 127 0" result="hardAlpha"/>
<feOffset dx="4" dy="4"/>
<feGaussianBlur stdDeviation="2"/>
<feComposite in2="hardAlpha" operator="arithmetic" k2="-1" k3="1"/>
<feColorMatrix type="matrix" values="0 0 0 0 0.313726 0 0 0 0 0.239216 0 0 0 0 0.176471 0 0 0 1 0"/>
<feBlend mode="normal" in2="shape" result="effect2_innerShadow_32_39"/>
</filter>
</defs>
</svg>
