<svg width="15" height="15" viewBox="0 0 15 15" fill="none" xmlns="http://www.w3.org/2000/svg">
<path fill-rule="evenodd" clip-rule="evenodd" d="M9.75705 5.87853C9.75705 8.02058 8.02058 9.75705 5.87853 9.75705C3.73648 9.75705 2 8.02058 2 5.87853C2 3.73648 3.73648 2 5.87853 2C8.02058 2 9.75705 3.73648 9.75705 5.87853ZM9.03185 10.8406C8.12065 11.4209 7.03885 11.7571 5.87853 11.7571C2.63191 11.7571 0 9.12515 0 5.87853C0 2.63191 2.63191 0 5.87853 0C9.12515 0 11.7571 2.63191 11.7571 5.87853C11.7571 7.24199 11.2929 8.49703 10.5139 9.49425L14.2729 13.2533C14.6635 13.6438 14.6635 14.277 14.2729 14.6675C13.8824 15.058 13.2493 15.058 12.8587 14.6675L9.03185 10.8406Z" fill="#503D2D" fill-opacity="0.8"/>
</svg>
