<svg width="45" height="45" viewBox="0 0 45 45" fill="none" xmlns="http://www.w3.org/2000/svg">
<path d="M31.875 39.375C33.9461 39.375 35.625 37.6961 35.625 35.625C35.625 33.5539 33.9461 31.875 31.875 31.875C29.8039 31.875 28.125 33.5539 28.125 35.625C28.125 37.6961 29.8039 39.375 31.875 39.375Z" stroke="#F5F1E8" stroke-width="2" stroke-linecap="round" stroke-linejoin="round"/>
<path d="M15 39.375C17.0711 39.375 18.75 37.6961 18.75 35.625C18.75 33.5539 17.0711 31.875 15 31.875C12.9289 31.875 11.25 33.5539 11.25 35.625C11.25 37.6961 12.9289 39.375 15 39.375Z" stroke="#F5F1E8" stroke-width="2" stroke-linecap="round" stroke-linejoin="round"/>
<path d="M5.625 5.625H7.85922C8.74335 5.625 9.50735 6.24263 9.6926 7.10713L14.6824 30.3929C14.8677 31.2574 15.6316 31.875 16.5158 31.875H31.875" stroke="#F5F1E8" stroke-width="2" stroke-linecap="round" stroke-linejoin="round"/>
<path d="M11.25 11.25H36.8827C38.1304 11.25 39.03 12.4459 38.6842 13.6447L35.439 24.8947C35.2075 25.6973 34.4729 26.25 33.6375 26.25H14.4952" stroke="#F5F1E8" stroke-width="2" stroke-linecap="round" stroke-linejoin="round"/>
</svg>
